# xmcd
#
# Track frame offsets: 
#        150
#        17587
#        32430
#        55015
#        74022
#        87647
#        106817
#        120577
#        134090
#        144307
#        154942
#
# Disc length: 2258 seconds
#
# Revision: 1
# Processed by: cddbd v1.5.2PL0 Copyright (c) Steve Scherf et al.
# Submitted via: ExactAudioCopy v0.99pb4
#
DISCID=9508d00b
DTITLE=Marvin Gaye - Forever Yours (DTS)
DYEAR=2007
DGENRE=Soul
TTITLE0=What's Going on
TTITLE1=I Heard it Through The Grapevine
TTITLE2=Let's Get it on
TTITLE3=Trouble Man
TTITLE4=It Takes Two
TTITLE5=Distant Lover
TTITLE6=Ain't That Peculiar
TTITLE7=Your Precious Love
TTITLE8=Ain't Nothing Like The Real Thing
TTITLE9=Ain't no Mountain High Enough
TTITLE10=Mercy Mercy me (The Ecology)
EXTD=
EXTT0=
EXTT1=
EXTT2=
EXTT3=
EXTT4=
EXTT5=
EXTT6=
EXTT7=
EXTT8=
EXTT9=
EXTT10=
PLAYORDER=
